<?xml version="1.0" encoding="UTF-8"?>
<svg id="Layer_1" data-name="Layer 1" xmlns="http://www.w3.org/2000/svg" viewBox="0 0 2091.73 1723.35">
  <defs>
    <style>
      .cls-1 {
        opacity: .1;
      }

      .cls-2 {
        fill: #f6f6f6;
      }

      .cls-3 {
        fill: #000100;
      }

      .cls-4 {
        fill: #efa348;
      }

      .cls-5 {
        fill: #ed7163;
      }

      .cls-6 {
        fill: #f78a5e;
      }

      .cls-7 {
        fill: #fff;
      }

      .cls-8 {
        fill: #f17e21;
      }

      .cls-9 {
        fill: #fecc86;
      }

      .cls-10 {
        fill: #fe9f73;
      }

      .cls-11 {
        fill: #dadada;
      }

      .cls-12 {
        fill: #20111d;
      }

      .cls-13 {
        fill: #1d1d1b;
      }

      .cls-14 {
        fill: #3b82f6;
      }

      .cls-15 {
        opacity: .5;
      }
    </style>
  </defs>
  <path class="cls-14" d="M2037.93,1319.13c-40.21,90.9-95.98,162.93-162.66,219.43-77.01,65.26-168.6,109.81-267.64,138.78-322.24,94.29-723.36,23.71-957.92-34.84-47.57-11.88-88.28-23.26-120.1-32.67-53.71-15.89-104.61-40.15-150.49-72.28-.24-.17-.48-.34-.72-.5C64.04,1316.55-69.47,1001.41,35.05,702.92c1.62-4.66,309.8-952.59,1040.55-639.53,320.8,137.44,202.8,254.22,558.39,400.3,166.24,68.3,386.23,190.11,446.58,477.47,21.53,102.55,14.28,249.31-42.63,377.97Z"/>
  <g>
    <path class="cls-10" d="M787.63,601.11s59.33-14.52,76.5,7.79c17.17,22.31-25.11,83.82-57.23,88.59-32.12,4.78-19.27-96.38-19.27-96.38Z"/>
    <path class="cls-5" d="M619.95,1423.03s150.97-73.31,178.64-176.86c27.68-103.55-150.02-116.79-147.55-116.77,2.47,.01-180.47,48.47-192.96,78.04-12.49,29.56-67.42,152.73-45.2,152.84,22.22,.11,207.07,62.76,207.07,62.76Z"/>
    <g>
      <path class="cls-2" d="M753.51,493.11c-.04-.22-.09-.44-.15-.66-1.7-7.45-8.71-12.45-16.31-11.64-.22,.02-.45,.05-.68,.08-.07,.01-.15,.01-.22,.03l-332.2,55.42c-.07,.01-.15,.03-.22,.05-.22,.04-.45,.09-.66,.15-7.45,1.7-12.46,8.71-11.65,16.3,.02,.22,.05,.45,.08,.67,.01,.07,.01,.15,.03,.22l115.23,690.73c1.2,7.18,7.99,12.03,15.17,10.83l336.03-56.06c7.18-1.2,12.03-7.99,10.83-15.17l-115.23-690.73c-.01-.07-.03-.15-.05-.22Z"/>
      <path class="cls-11" d="M385.08,550.41l24.07-23.14,323.83-53.17,32.56,20.24s2.08,29.35,.37,30.09c-1.71,.74-376.7,67.79-377.65,62-.95-5.78-3.17-36.02-3.17-36.02Z"/>
      <g class="cls-15">
        <path class="cls-7" d="M422.35,559.97c.34,2.03-.58,3.98-2.19,5.05-.57,.39-1.24,.66-1.98,.78-.72,.12-1.44,.08-2.12-.1-1.87-.48-3.38-2.03-3.71-4.06-.46-2.76,1.41-5.37,4.16-5.83,2.76-.46,5.37,1.4,5.83,4.16Z"/>
        <path class="cls-7" d="M437.81,557.39c.34,2.03-.58,3.98-2.19,5.05-.57,.39-1.24,.66-1.98,.78-.73,.12-1.46,.08-2.12-.1-1.87-.49-3.37-2.03-3.71-4.06-.46-2.76,1.4-5.37,4.16-5.83,2.76-.46,5.37,1.4,5.83,4.16Z"/>
        <path class="cls-7" d="M453.27,554.81c.34,2.03-.58,3.98-2.19,5.05-.57,.39-1.24,.66-1.98,.78-.73,.12-1.46,.08-2.12-.1-1.87-.49-3.37-2.03-3.71-4.06-.46-2.76,1.4-5.37,4.16-5.83,2.76-.46,5.37,1.4,5.83,4.16Z"/>
      </g>
      <path class="cls-12" d="M867.6,1176.91c1.86,11.13-5.67,21.66-16.79,23.52l-321.72,53.67c-11.13,1.86-21.67-5.66-23.52-16.79l-112.78-676c-2.07-12.42,6.32-24.17,18.74-26.24l317.06-52.9c12.42-2.07,24.17,6.31,26.24,18.74l112.78,676Zm-140.85-709.84l-318.39,53.12c-20.49,3.42-34.33,22.8-30.91,43.29l113.94,682.96c3.42,20.49,22.8,34.33,43.29,30.91l318.39-53.12c20.49-3.42,34.33-22.8,30.91-43.29l-113.94-682.96c-3.42-20.49-22.8-34.33-43.29-30.91Z"/>
    </g>
    <path class="cls-10" d="M650.89,1404.67v.91s0,.29,0,.29l-.44,87.68-.75,148.96c-47.57-11.88-88.28-23.26-120.1-32.67-53.71-15.89-104.61-40.15-150.49-72.28-.24-.17-.48-.34-.72-.5l6.15-188.03s-38.62-175.49-35.94-217.45c2.69-41.96,30.32-138.1,42.84-175.07,3.68-10.87,5.89-24.95,7.16-39.41,.1-1.08,.19-2.16,.27-3.25,0-.03,0-.04,0-.04,1.1-13.88,1.37-27.91,1.33-39.62,0-.37,0-.73,0-1.11,0-1.03,0-2.02-.02-3.01,0-.26,0-.52,0-.78-.17-14.14-.77-23.84-.77-23.84,.24-2.4,.58-4.65,.99-6.76,.42-2.21,.94-4.26,1.53-6.17,.45-1.45,.95-2.82,1.48-4.09,3.61-8.63,9.15-13.48,15.69-15.28,4.84-1.34,10.24-1.01,15.82,.68,19.74,5.98,41.75,29.01,49.55,55.51,14.57,49.46,1.51,192.58,1.51,192.58,0,0,33.76,34.1,54.96,102.09,5.62,18.02,10.36,38.42,13.35,61.2,1.13,8.66,1.7,16.79,1.76,24.42,.09,8.81-.5,16.95-1.61,24.45-1.57,10.67-4.21,20.06-7.54,28.31-17.73,44.01-54.99,55.83-54.99,55.83l2.46,.72,60.78,17.76,92.57,27.05,3.18,.93h.02Z"/>
    <g>
      <path class="cls-10" d="M844.18,934.67l4.14,25.29s-35.67,35.99-24.03,81.7c11.64,45.71,42.38,51.22,42.38,51.22,0,0,48.02-64.36,47.26-86.71s-.94-61.54-69.75-71.49Z"/>
      <path class="cls-6" d="M872.79,1084.4s19.25-19.52,37.14-62.13c-2.97-1.84-8.5-3.44-12.03-4.49-10.86-3.22-17.77-.99-23.64,6.63l-22.1,32.35s-4.25,8.26,5.08,17.81c3.59,3.67,15.56,9.83,15.56,9.83Z"/>
    </g>
    <path d="M867.31,1094.6l-1.01-.25c-15.42-3.82-24.97-15.71-25.37-16.22-1-1.18-25.34-30.22-20.49-64.01,4.84-33.64,33.04-61.03,34.24-62.18l2.11,2.2c-.29,.27-28.65,27.84-33.34,60.42-4.66,32.42,19.58,61.36,19.83,61.65,.12,.15,8.94,11.1,22.75,14.93l27.4-38.67c28.67-41.39,15.45-73.78,15.32-74.11l2.8-1.19c.15,.35,3.64,8.68,3.47,22.41-.16,12.59-3.61,32.28-19.09,54.64l-28.62,40.39Z"/>
    <g>
      <path class="cls-10" d="M872.04,1106.93l3.23,19.76s-27.87,28.12-18.78,63.84c9.09,35.72,33.11,40.02,33.11,40.02,0,0,37.52-50.3,36.93-67.75-.59-17.46-.73-48.09-54.5-55.87Z"/>
      <path class="cls-6" d="M894.39,1223.93s15.05-15.25,29.02-48.55c-2.32-1.44-6.64-2.68-9.4-3.5-8.49-2.52-13.88-.78-18.47,5.18l-17.27,25.28s-3.32,6.45,3.97,13.91c2.8,2.87,12.16,7.68,12.16,7.68Z"/>
    </g>
    <path d="M890.11,1231.9l-.79-.19c-12.05-2.98-19.51-12.28-19.82-12.67-.78-.92-19.8-23.61-16.01-50.02,3.78-26.28,25.82-47.69,26.76-48.59l1.65,1.72c-.22,.21-22.39,21.75-26.05,47.21-3.64,25.33,15.3,47.95,15.49,48.18,.1,.12,6.99,8.67,17.78,11.67l21.41-30.22c22.4-32.34,12.08-57.66,11.97-57.91l2.19-.93c.46,1.07,10.99,26.71-12.21,60.21l-22.36,31.56Z"/>
    <path class="cls-10" d="M548.34,1298.3s-24.06,62.22,6.75,78.37c30.81,16.15-74.21,24.75-74.19,21.7,.02-3.04-72.56-93.17-54.28-97.64,18.28-4.47,75.44-25.49,88.3-11.73,12.86,13.76,33.42,9.3,33.42,9.3Z"/>
    <g>
      <path class="cls-10" d="M819.88,784.96l4.14,25.29s-35.67,35.99-24.03,81.7c11.64,45.71,42.38,51.22,42.38,51.22,0,0,48.02-64.36,47.26-86.71-.75-22.34-.94-61.54-69.75-71.49Z"/>
      <path class="cls-6" d="M848.48,934.69s19.25-19.52,37.14-62.13c-2.97-1.84-8.5-3.44-12.03-4.49-10.86-3.22-17.77-.99-23.64,6.63l-22.1,32.35s-4.25,8.26,5.08,17.81c3.59,3.67,15.56,9.83,15.56,9.83Z"/>
    </g>
    <rect x="606.24" y="1447.58" width="88.88" height="3.04" transform="translate(-801.66 2092.53) rotate(-89.71)"/>
    <path d="M642.92,1409.28l-1.23-2.78c51.69-22.8,99.72-66.67,122.46-97.78,20.12-27.51,28.75-47.85,28.83-48.06l2.81,1.18c-.09,.21-8.83,20.85-29.18,48.67-22.98,31.43-71.49,75.74-123.69,98.77Z"/>
    <path class="cls-6" d="M433.45,837.17c-3.03-8.58-24.94-9.72-31.38-8.57-4.16,.74,.19,81.52-3.19,85.2,0,0-.61,1.01,10.02,1.38,11.72,.41,19.85-4.53,19.85-4.53,0,0,7.72-64.9,4.69-73.48Z"/>
    <path d="M843.01,944.88l-1-.24c-13.87-3.28-24.87-15.63-25.33-16.16-1.06-1.24-25.4-30.28-20.54-64.08,4.84-33.64,33.04-61.03,34.24-62.18l2.11,2.2c-.29,.27-28.65,27.84-33.34,60.42-4.66,32.41,19.58,61.36,19.83,61.65,.09,.1,10.28,11.52,22.75,14.94l27.4-38.68c28.67-41.39,15.45-73.78,15.32-74.11l2.8-1.19c.15,.35,3.64,8.68,3.47,22.41-.16,12.59-3.61,32.28-19.09,54.64l-28.61,40.38Z"/>
    <polygon points="822.52 810.49 774.43 533.52 777.44 533.03 825.52 810 822.52 810.49"/>
    <path d="M857.63,656.89l-2.48-1.76c.21-.3,21.07-30.11,5.77-47.54-15.51-17.66-70.32-5.59-70.87-5.47l-.67-2.97c2.32-.52,57.13-12.58,73.82,6.43,16.89,19.23-4.65,50.01-5.57,51.31Z"/>
    <path class="cls-3" d="M445.52,1325.22c-.45,.32-1.04,.4-1.58,.17-18.1-7.96-35.02-34.51-35.74-35.64-.47-.75-.25-1.73,.5-2.21,.75-.47,1.74-.25,2.21,.5,.17,.27,17.12,26.86,34.32,34.42,.81,.36,1.18,1.3,.82,2.11-.12,.27-.31,.5-.53,.66Z"/>
    <path class="cls-3" d="M467.42,1321.87c-.35,.25-.8,.36-1.25,.27-19.39-3.87-41.65-26.15-42.58-27.09-.62-.63-.62-1.65,.01-2.27,.63-.63,1.65-.62,2.27,0,.22,.22,22.51,22.53,40.93,26.2,.87,.17,1.43,1.02,1.26,1.89-.08,.42-.32,.76-.64,.99Z"/>
    <path d="M492.36,1359.65l-.92-2.9c.19-.06,19.08-6.24,35.97-25.42,15.59-17.7,32.65-50.45,25.36-105.93-7.33-55.85-25.39-97.03-39.26-121.75-15.02-26.78-28.49-40.53-28.62-40.67l-.5-.5,.06-.71c.13-1.43,12.87-143.4-1.45-192.01-8.57-29.12-35.94-55.77-57.41-55.92-.02,0-.03,0-.05,0-10.61-.05-18.28,6.56-22.17,19.13-1.14,3.68-1.96,7.89-2.44,12.52,.14,2.42,2.15,38.33-.81,71.75-1.45,16.5-3.89,29.87-7.24,39.76-11.46,33.84-40.05,132.17-42.77,174.69-2.64,41.26,35.52,215.26,35.91,217.02l-2.97,.65c-1.58-7.17-38.64-176.17-35.97-217.86,2.74-42.8,31.42-141.51,42.92-175.47,3.27-9.66,5.66-22.8,7.09-39.05,3.03-34.21,.82-71.06,.8-71.43v-.12s0-.12,0-.12c.5-4.87,1.37-9.32,2.57-13.23,5.47-17.65,16.65-21.32,25.09-21.27,.02,0,.04,0,.06,0,10.81,.08,23.63,6.43,35.16,17.44,11.81,11.27,20.74,25.71,25.14,40.66,14.12,47.93,2.7,180.4,1.63,192.46,2.59,2.76,14.97,16.49,28.55,40.69,14.02,24.96,32.28,66.56,39.68,122.95,3.28,25.01,2.01,47.64-3.77,67.27-4.65,15.76-12.19,29.62-22.43,41.2-17.46,19.75-36.42,25.93-37.22,26.18Z"/>
  </g>
  <g>
    <path class="cls-10" d="M1331.75,645.73s-60.97-3.56-73.83,21.48c-12.86,25.04,39.83,77.9,72.28,76.8,32.45-1.1,1.55-98.28,1.55-98.28Z"/>
    <path class="cls-5" d="M1645.1,1423.86s-161.72-44.84-207.64-141.7c-45.92-96.85,126.46-141.96,124.03-141.5-2.43,.46,186.26,15.09,203.88,41.91,17.63,26.82,93.9,138.04,72.06,142.17-21.83,4.12-192.33,99.12-192.33,99.12Z"/>
    <g>
      <path class="cls-2" d="M1345.81,533.35c0-.23,.01-.45,.02-.68,.33-7.63,6.32-13.82,13.94-14.39,.22-.02,.45-.03,.68-.05,.08,0,.15-.01,.22-.01l336.75-5.48c.08,0,.15,0,.22,0,.23,0,.45,.01,.68,.02,7.63,.33,13.82,6.32,14.4,13.93,.02,.22,.03,.45,.05,.68,0,.08,.01,.15,.02,.22l11.39,700.19c.12,7.28-5.69,13.28-12.97,13.4l-340.63,5.54c-7.28,.12-13.28-5.68-13.4-12.97l-11.39-700.19c0-.08,0-.15,0-.22Z"/>
      <path class="cls-11" d="M1718.53,523.18l-27.85-18.41-328.1,6.19-28.37,25.78s3.26,29.24,5.07,29.66c1.81,.42,382.75-1.35,382.64-7.21-.11-5.86-3.38-36-3.38-36Z"/>
      <g class="cls-15">
        <path class="cls-7" d="M1683.59,539.3c.03,2.06,1.29,3.81,3.06,4.57,.63,.28,1.34,.43,2.09,.41,.73-.01,1.43-.18,2.06-.48,1.75-.81,2.95-2.61,2.92-4.67-.05-2.8-2.36-5.03-5.15-4.98-2.8,.05-5.03,2.35-4.98,5.15Z"/>
        <path class="cls-7" d="M1667.92,539.56c.03,2.06,1.29,3.81,3.06,4.57,.63,.28,1.34,.43,2.09,.41,.74-.01,1.45-.18,2.07-.48,1.75-.82,2.95-2.61,2.91-4.67-.05-2.8-2.35-5.03-5.15-4.98-2.8,.05-5.03,2.35-4.98,5.15Z"/>
        <path class="cls-7" d="M1652.25,539.81c.03,2.06,1.29,3.81,3.06,4.57,.63,.28,1.34,.43,2.09,.41s1.45-.18,2.07-.48c1.75-.82,2.95-2.61,2.91-4.67-.05-2.8-2.35-5.03-5.15-4.98-2.8,.05-5.03,2.35-4.98,5.15Z"/>
      </g>
      <path class="cls-12" d="M1345.92,541.26c-.2-12.59,9.84-22.96,22.42-23.17l321.4-5.23c12.59-.2,22.96,9.83,23.17,22.42l11.15,685.25c.18,11.29-8.82,20.58-20.1,20.76l-326.12,5.31c-11.28,.18-20.58-8.81-20.76-20.1l-11.15-685.25Zm-15.49-.13l11.27,692.31c.34,20.77,17.45,37.33,38.22,36.99l322.74-5.25c20.77-.34,37.33-17.45,36.99-38.22l-11.27-692.31c-.34-20.77-17.45-37.33-38.22-36.99l-322.74,5.25c-20.77,.34-37.33,17.45-36.99,38.22Z"/>
    </g>
    <path class="cls-10" d="M1875.27,1538.57c-77.01,65.26-168.6,109.81-267.64,138.78l.16-132.93,.05-45.72,3.72-86.15h0s-.05-.27-.05-.27l-.16-.9,.93-.47,2.03-1.03,86.2-43.34h.02l56.52-28.42,2.29-1.15s-38.93-4.92-64.28-45.18c-.03-.04-.04-.08-.07-.12-.02-.03-.03-.05-.04-.08-4.68-7.43-8.88-16.07-12.3-26.09-2.44-7.18-4.49-15.08-5.99-23.75h0c-1.32-7.52-2.23-15.61-2.68-24.34-.68-13.41-.63-26.12-.03-38.11,.44-8.54,1.16-16.7,2.11-24.5h0c1.13-9.39,2.6-18.22,4.28-26.49,4.65-22.85,10.97-41.38,16.73-55.15,7.84-18.78,14.61-28.7,14.61-28.7,0,0-8.19-29.3-16.5-65.93-.69-2.99-1.36-6.02-2.03-9.09-9.05-41.15-17.48-88.9-14.75-114.66,2.88-27.48,20.37-54.1,38.71-63.54,5.17-2.68,10.43-3.97,15.43-3.53,6.76,.6,13.09,4.35,18.2,12.2,.76,1.16,1.49,2.42,2.19,3.76,.91,1.76,1.78,3.67,2.59,5.74,0,0,0,.02,.02,.04,.79,2.02,1.53,4.17,2.2,6.49,0,0,1.26,10.37,3.82,25.12,.12,.7,.25,1.42,.37,2.15,.12,.68,.24,1.36,.36,2.02,2.07,11.34,4.82,24.73,8.31,37.84h0s0,.04,0,.04,0,0,0,.02c.27,1.04,.56,2.1,.85,3.13,3.86,14,8.58,27.44,14.16,37.46,19,34.11,63.54,123.68,73.76,164.48,10.21,40.78,3.91,220.34,3.91,220.34h0s12,230.01,12,230.01Z"/>
    <g>
      <path class="cls-10" d="M1336.36,984.02l.5,25.62s41.58,28.96,38.39,76.01c-3.19,47.06-32.43,58.03-32.43,58.03,0,0-58.85-54.63-62.14-76.75-3.29-22.11-10.19-60.7,55.69-82.91Z"/>
      <path class="cls-6" d="M1335.26,1136.46s-22.46-15.72-47.75-54.4c2.59-2.35,7.74-4.91,11.03-6.58,10.1-5.13,17.29-4.18,24.45,2.25l27.58,27.83s5.67,7.36-1.78,18.43c-2.86,4.26-13.53,12.48-13.53,12.48Z"/>
    </g>
    <path d="M1342.5,1145.5l-35.43-34.55c-19.28-19.2-26.22-37.95-28.66-50.3-2.65-13.47-.72-22.3-.64-22.67l2.97,.67c-.08,.34-7.23,34.59,28.46,70.13l33.92,33.08c12.89-6.26,19.59-18.62,19.66-18.75,.22-.37,18.83-33.22,8.39-64.26-10.49-31.2-43.37-53.19-43.7-53.41l1.68-2.54c1.39,.91,34.08,22.77,44.91,54.98,10.88,32.36-7.81,65.32-8.62,66.71-.27,.52-7.52,13.94-22,20.48l-.95,.43Z"/>
    <g>
      <path class="cls-10" d="M1340.07,1158.48l.39,20.02s32.49,22.63,30,59.4c-2.49,36.77-25.34,45.34-25.34,45.34,0,0-45.99-42.69-48.56-59.97-2.57-17.28-7.96-47.43,43.52-64.79Z"/>
      <path class="cls-6" d="M1339.21,1277.6s-17.55-12.29-37.31-42.51c2.03-1.84,6.05-3.84,8.62-5.15,7.89-4.01,13.51-3.27,19.11,1.76l21.55,21.74s4.43,5.75-1.39,14.4c-2.24,3.33-10.57,9.75-10.57,9.75Z"/>
    </g>
    <path d="M1344.87,1284.66l-27.68-27c-28.88-28.76-23.15-55.88-22.89-57.02l2.32,.52c-.06,.27-5.65,27.03,22.24,54.8l26.51,25.85c10.1-4.9,15.31-14.55,15.36-14.65,.17-.29,14.71-25.96,6.56-50.22-8.2-24.38-33.89-41.56-34.15-41.73l1.31-1.98c1.08,.71,26.63,17.79,35.09,42.96,8.5,25.29-6.11,51.04-6.73,52.13-.21,.41-5.88,10.89-17.19,16.01l-.74,.33Z"/>
    <path class="cls-10" d="M1693.01,1288.24s34.9,56.85,7.51,78.3c-27.39,21.44,77.45,10.94,76.89,7.95-.56-2.99,54.54-104.74,35.76-105.84-18.79-1.1-78.8-11.44-88.96,4.41-10.17,15.85-31.2,15.18-31.2,15.18Z"/>
    <g>
      <path class="cls-10" d="M1333.23,832.39l.5,25.62s41.58,28.96,38.39,76.01c-3.19,47.06-32.43,58.03-32.43,58.03,0,0-58.85-54.64-62.14-76.75-3.29-22.11-10.19-60.7,55.69-82.91Z"/>
      <path class="cls-6" d="M1332.13,984.82s-22.46-15.72-47.75-54.4c2.59-2.35,7.74-4.91,11.03-6.58,10.1-5.13,17.29-4.18,24.45,2.25l27.58,27.83s5.67,7.36-1.78,18.43c-2.86,4.26-13.53,12.48-13.53,12.48Z"/>
    </g>
    <rect x="1543.02" y="1476.38" width="133.08" height="3.04" transform="translate(89.44 3047.66) rotate(-88.48)"/>
    <path d="M1620.02,1414.48c-55.51-13.22-111.22-48.05-139.49-74.81-25.04-23.7-37.37-42.42-37.49-42.61l2.55-1.66c.12,.18,12.28,18.63,37.03,42.06,27.99,26.49,83.15,60.97,138.11,74.06l-.71,2.96Z"/>
    <path class="cls-6" d="M1722.74,813.96c1.43-8.98,22.77-14.07,29.31-14.1,4.22-.02,14.53,80.21,18.52,83.23,0,0,.78,.88-9.61,3.17-11.45,2.52-20.35-.87-20.35-.87,0,0-19.31-62.44-17.88-71.43Z"/>
    <path d="M1339.36,993.85l-35.42-34.54c-19.28-19.2-26.22-37.95-28.66-50.3-2.65-13.47-.72-22.3-.64-22.67l2.97,.67c-.08,.34-7.23,34.59,28.46,70.13l33.93,33.08c11.64-5.61,19.61-18.69,19.69-18.82,.18-.31,18.79-33.15,8.35-64.19-10.49-31.2-43.37-53.19-43.7-53.41l1.68-2.54c1.39,.91,34.08,22.77,44.91,54.98,10.88,32.36-7.81,65.32-8.62,66.71-.37,.62-8.97,14.75-22.01,20.49l-.94,.41Z"/>
    <polygon points="1333.26 858.04 1329.81 577.11 1331.8 577.05 1335.25 857.98 1333.26 858.04"/>
    <path d="M1272.97,713.24c-1.14-1.11-27.88-27.49-14.75-49.46,12.99-21.71,69.07-19.75,71.45-19.65l-.12,3.04c-.56-.02-56.66-1.99-68.72,18.18-11.9,19.9,13.99,45.46,14.25,45.71l-2.12,2.18Z"/>
    <path class="cls-3" d="M1799,1296.16c.5,.23,1.1,.21,1.59-.12,16.36-11.09,28.22-40.27,28.71-41.51,.33-.82-.07-1.75-.89-2.09-.82-.33-1.76,.07-2.09,.89-.12,.29-11.99,29.51-27.54,40.05-.73,.5-.92,1.49-.43,2.23,.17,.25,.39,.43,.64,.55Z"/>
    <path class="cls-3" d="M1776.85,1296.82c.39,.18,.85,.21,1.28,.04,18.37-7.3,36.24-33.24,36.99-34.34,.5-.73,.31-1.73-.42-2.23-.73-.5-1.73-.31-2.23,.42-.18,.26-18.07,26.22-35.53,33.16-.82,.33-1.23,1.26-.9,2.08,.16,.39,.45,.69,.81,.86Z"/>
    <path d="M1759.15,1338.48c-.83-.1-20.6-2.76-41.34-19.03-12.16-9.55-22.09-21.82-29.5-36.47-9.24-18.26-14.57-40.29-15.86-65.48-2.9-56.8,7.55-101.01,16.83-128.1,8.99-26.25,18.68-41.99,20.74-45.17-3.24-11.66-38.39-139.9-33.16-189.59,1.63-15.5,7.8-31.31,17.39-44.53,9.36-12.91,20.81-21.48,31.43-23.51,8.3-1.59,20-.03,28.58,16.38,1.89,3.63,3.55,7.85,4.92,12.55l.05,.24c.04,.37,4.53,37.01,13.68,70.11,4.34,15.73,9.06,28.22,14.03,37.13,17.44,31.32,63.48,123.23,73.9,164.83,10.15,40.52,4.22,213.44,3.96,220.78l-3.04-.11c.06-1.79,6.18-179.83-3.87-219.93-10.35-41.32-56.22-132.87-73.61-164.09-5.08-9.12-9.89-21.84-14.3-37.8-8.94-32.34-13.46-68.01-13.75-70.43-1.31-4.46-2.88-8.45-4.66-11.87-6.11-11.68-14.86-16.79-25.31-14.8-21.09,4.02-43.19,35.18-46.36,65.37-5.31,50.4,32.86,187.74,33.25,189.12l.19,.68-.4,.59c-.11,.16-10.87,16.11-20.81,45.17-9.17,26.81-19.5,70.58-16.63,126.83,2.86,55.99,25.61,85.13,44.2,99.72,20.08,15.76,39.65,18.38,39.84,18.41l-.38,3.02Z"/>
  </g>
  <g>
    <path class="cls-8" d="M995.52,952.48l-437.36,89.49c-8.11,1.66-16.03-3.57-17.69-11.68l-54.04-264.1c-1.66-8.11,3.57-16.03,11.68-17.69l437.36-89.49c8.11-1.66,16.03,3.57,17.69,11.68l54.04,264.1c1.66,8.11-3.57,16.03-11.68,17.69Z"/>
    <g class="cls-1">
      <circle class="cls-7" cx="746.81" cy="850.49" r="106.08" transform="translate(-382.65 777.18) rotate(-45)"/>
    </g>
    <g>
      <g>
        <path class="cls-7" d="M569.76,939.49c-.12,1.52-.48,2.82-1.07,3.89-.59,1.07-1.39,1.93-2.4,2.58-1.01,.65-2.21,1.12-3.6,1.4-1.39,.28-2.68,.33-3.87,.13-1.2-.2-2.28-.68-3.24-1.43-.97-.75-1.8-1.81-2.51-3.16-.71-1.35-1.27-3.04-1.68-5.06l-1.01-4.93c-.41-2.02-.56-3.79-.44-5.31,.12-1.52,.48-2.82,1.07-3.89,.59-1.07,1.4-1.94,2.42-2.59,1.02-.65,2.23-1.12,3.61-1.41,1.39-.28,2.67-.32,3.86-.12,1.18,.2,2.26,.68,3.22,1.43,.97,.75,1.8,1.81,2.51,3.16,.71,1.35,1.27,3.04,1.68,5.06l1.01,4.93c.41,2.02,.56,3.79,.44,5.31Zm-4.77-9.57c-.31-1.53-.72-2.82-1.2-3.85-.49-1.03-1.05-1.83-1.67-2.42-.63-.58-1.32-.96-2.07-1.14-.76-.17-1.56-.18-2.41,0-.85,.17-1.59,.49-2.22,.95-.63,.46-1.11,1.08-1.46,1.86-.35,.78-.54,1.74-.59,2.88-.05,1.14,.09,2.47,.4,4.01l1.01,4.93c.31,1.53,.71,2.82,1.2,3.85,.49,1.03,1.05,1.84,1.67,2.42,.62,.58,1.32,.96,2.07,1.14,.76,.18,1.56,.18,2.41,0,.85-.17,1.59-.49,2.22-.95,.63-.46,1.11-1.08,1.46-1.86,.35-.78,.54-1.74,.59-2.88,.05-1.14-.09-2.47-.4-4.01l-1.01-4.93Z"/>
        <path class="cls-7" d="M591.86,934.97c-.12,1.52-.48,2.82-1.07,3.89-.59,1.07-1.39,1.93-2.4,2.58-1.01,.65-2.21,1.12-3.6,1.4-1.39,.28-2.68,.33-3.87,.13-1.2-.2-2.28-.68-3.24-1.43-.97-.75-1.8-1.81-2.51-3.16-.71-1.35-1.27-3.04-1.68-5.06l-1.01-4.93c-.41-2.02-.56-3.79-.44-5.31,.12-1.52,.48-2.82,1.07-3.89,.59-1.07,1.4-1.94,2.42-2.59,1.02-.65,2.23-1.12,3.61-1.41,1.39-.28,2.67-.32,3.86-.12,1.18,.2,2.26,.68,3.22,1.43,.97,.75,1.8,1.81,2.51,3.16,.71,1.35,1.27,3.04,1.68,5.06l1.01,4.93c.41,2.02,.56,3.79,.44,5.31Zm-4.77-9.57c-.31-1.53-.72-2.82-1.2-3.85-.49-1.03-1.05-1.83-1.67-2.42-.63-.58-1.32-.96-2.07-1.14-.76-.17-1.56-.18-2.41,0-.85,.17-1.59,.49-2.22,.95-.63,.46-1.11,1.08-1.46,1.86-.35,.78-.54,1.74-.59,2.88-.05,1.14,.09,2.47,.4,4.01l1.01,4.93c.31,1.53,.72,2.82,1.2,3.85,.49,1.03,1.05,1.84,1.67,2.42,.62,.58,1.32,.96,2.07,1.14,.76,.18,1.56,.18,2.41,0,.85-.17,1.59-.49,2.22-.95,.63-.46,1.11-1.08,1.46-1.86,.35-.78,.54-1.74,.59-2.88,.05-1.14-.09-2.47-.4-4.01l-1.01-4.93Z"/>
        <path class="cls-7" d="M610.72,915.54c.29,1.44,.18,2.76-.33,3.97-.52,1.21-1.51,2.56-2.99,4.06l-3.03,3.09c-.89,.89-1.6,1.7-2.14,2.43-.54,.73-.93,1.44-1.19,2.13-.25,.69-.39,1.37-.42,2.05-.03,.68,.04,1.42,.21,2.22l.16,.77,12.31-2.52c.19-.04,.38-.02,.54,.06,.17,.08,.27,.22,.31,.41l.33,1.61c.04,.2,0,.37-.12,.52-.12,.15-.28,.25-.47,.29l-14.48,2.96c-.19,.04-.37,0-.55-.1-.17-.1-.28-.25-.32-.45l-.6-2.96c-.39-1.9-.31-3.72,.23-5.48,.54-1.76,1.68-3.51,3.41-5.26l3.19-3.24c.65-.67,1.18-1.24,1.59-1.73,.41-.49,.72-.95,.92-1.38,.2-.43,.32-.87,.34-1.31,.03-.44-.02-.92-.13-1.46-.27-1.31-.88-2.18-1.85-2.61-.96-.42-2.43-.43-4.4-.03-.95,.19-2,.47-3.14,.82-1.15,.35-2.22,.7-3.21,1.06l-.15,.03c-.39,.08-.63-.1-.72-.54l-.26-1.3c-.04-.2,0-.36,.11-.49,.11-.13,.26-.23,.45-.32,.87-.44,1.88-.83,3.01-1.19,1.13-.36,2.25-.65,3.34-.88,2.97-.61,5.27-.53,6.9,.23,1.63,.76,2.67,2.27,3.14,4.53Z"/>
        <path class="cls-7" d="M631.28,932.84c-.09,.17-.24,.28-.43,.32l-2.01,.41c-.2,.04-.37,0-.52-.12-.15-.12-.25-.28-.29-.47l-4.7-22.98-4.29,3.01c-.16,.11-.31,.18-.45,.21-.22,.04-.36-.07-.41-.33l-.38-1.86c-.02-.12-.01-.22,.04-.29,.05-.07,.13-.16,.23-.26l4.98-3.76c.26-.21,.5-.33,.72-.38l1.5-.31c.19-.04,.37,0,.53,.1,.16,.11,.26,.26,.3,.45l5.26,25.72c.04,.2,.01,.38-.08,.55Z"/>
      </g>
      <g>
        <path class="cls-7" d="M678,917.34c-.12,1.52-.48,2.82-1.07,3.89-.59,1.07-1.39,1.93-2.4,2.58-1.01,.65-2.21,1.12-3.6,1.4-1.39,.28-2.68,.33-3.87,.13-1.2-.2-2.28-.68-3.24-1.43-.97-.75-1.8-1.81-2.51-3.16-.71-1.35-1.27-3.04-1.68-5.06l-1.01-4.93c-.41-2.02-.56-3.79-.44-5.31,.12-1.52,.48-2.82,1.07-3.89,.59-1.07,1.4-1.94,2.42-2.59,1.02-.65,2.23-1.12,3.61-1.41,1.39-.28,2.67-.32,3.86-.12,1.18,.2,2.26,.68,3.22,1.43,.97,.75,1.8,1.81,2.51,3.16,.71,1.35,1.27,3.04,1.68,5.06l1.01,4.93c.41,2.02,.56,3.79,.44,5.31Zm-4.77-9.57c-.31-1.53-.72-2.82-1.2-3.85-.49-1.03-1.05-1.83-1.67-2.42-.63-.58-1.32-.96-2.07-1.14-.76-.17-1.56-.18-2.41,0-.85,.17-1.59,.49-2.22,.95-.63,.46-1.11,1.08-1.46,1.86-.35,.78-.54,1.74-.59,2.88-.05,1.14,.09,2.47,.4,4.01l1.01,4.93c.31,1.53,.71,2.82,1.2,3.85,.49,1.03,1.05,1.84,1.67,2.42,.62,.58,1.32,.96,2.07,1.14,.76,.18,1.56,.18,2.41,0,.85-.17,1.59-.49,2.22-.95,.63-.46,1.11-1.08,1.46-1.86,.35-.78,.54-1.74,.59-2.88,.05-1.14-.09-2.47-.4-4.01l-1.01-4.93Z"/>
        <path class="cls-7" d="M699.44,914.91c-.25,1.08-.71,2.02-1.38,2.81-.67,.8-1.53,1.46-2.58,1.99-1.05,.53-2.24,.93-3.58,1.21-1.17,.24-2.29,.39-3.35,.45-1.07,.06-2.06,.09-2.97,.07-.21,0-.39-.06-.54-.14-.16-.08-.26-.22-.3-.42l-.26-1.26c-.08-.41,.08-.66,.49-.75l.11-.02c1.13-.08,2.23-.18,3.33-.3,1.09-.12,2.06-.27,2.92-.44,2-.41,3.36-1.1,4.1-2.09,.74-.99,.93-2.35,.57-4.1l-.16-.76c-.1-.49-.27-.97-.51-1.47-.24-.49-.57-.93-.99-1.3-.42-.37-.93-.64-1.53-.8-.61-.17-1.32-.17-2.15,0l-6.65,1.36c-.46,.09-.74-.08-.83-.52l-.26-1.28c-.09-.46,.09-.74,.55-.84l6.65-1.36c.88-.18,1.57-.46,2.07-.84,.51-.38,.87-.82,1.08-1.3,.22-.49,.33-1,.35-1.53,.02-.53-.02-1.04-.12-1.53l-.1-.51c-.31-1.5-.96-2.51-1.97-3.03-1.01-.51-2.54-.56-4.61-.14-1.07,.22-2.05,.48-2.94,.77-.89,.3-1.92,.64-3.08,1.03l-.11,.02c-.41,.08-.66-.08-.75-.5l-.27-1.3c-.04-.17,0-.33,.11-.48,.11-.15,.25-.27,.44-.36,.84-.38,1.76-.74,2.76-1.11,1-.36,2.09-.66,3.26-.9,1.36-.28,2.63-.42,3.8-.42,1.17,0,2.2,.2,3.11,.6,.91,.4,1.67,1,2.29,1.81,.62,.81,1.07,1.9,1.35,3.26l.1,.51c.25,1.24,.19,2.42-.19,3.54-.38,1.12-1.09,2.07-2.12,2.87,.72,.18,1.35,.45,1.88,.8,.53,.35,.98,.75,1.35,1.21,.37,.46,.67,.94,.91,1.45,.23,.51,.4,1.03,.51,1.57l.16,.77c.28,1.36,.29,2.59,.05,3.66Z"/>
        <path class="cls-7" d="M721.55,910.39c-.25,1.08-.71,2.02-1.38,2.81-.67,.8-1.53,1.46-2.58,1.99-1.05,.53-2.24,.93-3.58,1.21-1.17,.24-2.29,.39-3.35,.45-1.07,.06-2.06,.09-2.97,.07-.21,0-.39-.06-.54-.14-.16-.08-.26-.22-.3-.42l-.26-1.26c-.08-.41,.08-.66,.49-.75l.11-.02c1.13-.08,2.23-.18,3.33-.3,1.09-.12,2.06-.27,2.92-.44,2-.41,3.36-1.1,4.1-2.09,.74-.99,.93-2.35,.57-4.1l-.16-.76c-.1-.49-.27-.97-.51-1.47-.24-.49-.57-.93-.99-1.3-.42-.37-.93-.64-1.53-.8-.6-.17-1.32-.17-2.15,0l-6.65,1.36c-.46,.09-.74-.08-.83-.52l-.26-1.28c-.09-.46,.09-.74,.55-.84l6.65-1.36c.88-.18,1.57-.46,2.07-.84,.51-.38,.87-.82,1.08-1.3,.22-.49,.33-1,.35-1.53,.02-.53-.02-1.04-.12-1.53l-.1-.51c-.31-1.5-.96-2.51-1.97-3.03-1.01-.51-2.54-.56-4.61-.14-1.07,.22-2.05,.48-2.94,.77-.89,.3-1.92,.64-3.08,1.03l-.11,.02c-.41,.08-.66-.08-.75-.5l-.27-1.3c-.04-.17,0-.33,.11-.48,.11-.15,.25-.27,.44-.36,.84-.38,1.76-.74,2.76-1.11,1-.36,2.09-.66,3.26-.9,1.36-.28,2.63-.42,3.8-.42,1.17,0,2.2,.2,3.11,.6,.91,.4,1.67,1,2.29,1.81,.62,.81,1.07,1.9,1.35,3.26l.1,.51c.25,1.24,.19,2.42-.19,3.54-.38,1.12-1.09,2.07-2.12,2.87,.72,.18,1.35,.45,1.88,.8,.53,.35,.98,.75,1.35,1.21,.37,.46,.67,.94,.91,1.45,.23,.51,.4,1.03,.51,1.57l.16,.77c.28,1.36,.29,2.59,.05,3.66Z"/>
        <path class="cls-7" d="M739.51,910.69c-.09,.17-.24,.28-.43,.32l-2.01,.41c-.2,.04-.37,0-.52-.12-.15-.12-.25-.28-.29-.47l-4.7-22.98-4.29,3.01c-.16,.11-.31,.18-.45,.21-.22,.04-.36-.07-.41-.33l-.38-1.86c-.02-.12-.01-.22,.04-.29,.05-.07,.13-.16,.23-.26l4.98-3.76c.26-.21,.5-.33,.72-.38l1.5-.31c.19-.04,.37,0,.53,.1,.16,.11,.26,.26,.3,.45l5.26,25.72c.04,.19,.01,.38-.08,.55Z"/>
      </g>
      <g>
        <path class="cls-7" d="M786.59,893.75l-3.18,.65,1.33,6.5c.04,.2,.02,.38-.06,.55-.08,.17-.22,.27-.42,.31l-2.14,.44c-.2,.04-.37,0-.51-.12-.14-.12-.23-.28-.27-.48l-1.33-6.5-10.53,2.15c-.56,.11-.97,.09-1.23-.07-.26-.16-.45-.51-.56-1.05l-.28-1.39c-.1-.51-.05-.99,.16-1.44l7.68-17.37c.07-.17,.16-.32,.28-.48,.12-.15,.34-.26,.65-.32l2.18-.45c.64-.13,1.02,.07,1.13,.61l3.33,16.3,3.18-.65c.2-.04,.37-.01,.53,.08,.16,.1,.26,.24,.3,.44l.3,1.48c.09,.44-.1,.71-.56,.81Zm-9.66-13.93c-.03-.15-.09-.21-.19-.19h-.04c-.1,.03-.18,.12-.25,.29l-5.96,13.67c-.05,.11-.07,.22-.05,.31,.03,.15,.14,.2,.34,.16l8.7-1.78-2.55-12.46Z"/>
        <path class="cls-7" d="M808.01,891.02c-.12,1.46-.49,2.71-1.12,3.75-.62,1.04-1.49,1.89-2.6,2.53-1.11,.65-2.45,1.13-4,1.45-1.46,.3-2.7,.49-3.71,.57-1.01,.08-1.91,.11-2.7,.09-.25,0-.48-.03-.67-.09-.19-.06-.31-.21-.35-.43l-.3-1.44c-.04-.22-.02-.4,.08-.53,.1-.13,.25-.22,.44-.26,.05,0,.09-.01,.11,0,.03,0,.06,0,.11,0,.97,0,1.98-.05,3.03-.16,1.05-.11,2.17-.29,3.34-.53,1.41-.29,2.49-.72,3.24-1.29,.75-.57,1.27-1.25,1.56-2.04,.29-.79,.4-1.7,.32-2.72-.08-1.02-.24-2.12-.49-3.31l-.08-.4c-.74,.33-1.54,.67-2.4,1.01-.86,.34-1.85,.62-2.97,.85-1.19,.24-2.36,.36-3.49,.33-1.13-.02-2.17-.24-3.12-.65-.95-.42-1.77-1.07-2.45-1.95-.69-.89-1.18-2.06-1.48-3.52l-.04-.22c-.59-2.9-.32-5.31,.82-7.25,1.14-1.93,3.21-3.21,6.2-3.82,2.75-.56,5.09-.17,7.01,1.17,1.92,1.34,3.25,3.81,3.99,7.39l1.31,6.39c.4,1.95,.54,3.65,.42,5.11Zm-5.02-10.85c-.3-1.48-.68-2.69-1.12-3.62-.44-.93-.96-1.64-1.56-2.13-.59-.49-1.26-.78-2.01-.88-.74-.1-1.55-.06-2.43,.12-.85,.17-1.6,.44-2.25,.8-.65,.36-1.17,.85-1.57,1.46-.4,.61-.64,1.36-.74,2.24-.1,.88-.02,1.94,.23,3.18l.04,.22c.2,.97,.52,1.75,.97,2.34,.45,.59,.98,1.02,1.6,1.29,.61,.27,1.27,.41,1.97,.43,.7,.02,1.42-.04,2.15-.19,.44-.09,.91-.2,1.41-.35,.5-.14,1-.29,1.49-.46,.49-.16,.95-.33,1.38-.51,.43-.18,.8-.33,1.1-.47l-.67-3.47Z"/>
        <path class="cls-7" d="M827.2,871.25c.29,1.44,.18,2.76-.33,3.97-.52,1.21-1.51,2.56-2.99,4.06l-3.03,3.09c-.89,.89-1.6,1.7-2.14,2.43-.54,.73-.93,1.44-1.19,2.13-.25,.69-.39,1.37-.42,2.05-.03,.68,.04,1.42,.21,2.22l.16,.77,12.31-2.52c.19-.04,.38-.02,.54,.06,.17,.08,.27,.22,.31,.41l.33,1.61c.04,.2,0,.37-.12,.52-.12,.15-.28,.25-.47,.29l-14.48,2.96c-.19,.04-.37,0-.55-.1-.17-.1-.28-.25-.32-.45l-.6-2.96c-.39-1.9-.31-3.72,.23-5.48,.54-1.76,1.68-3.51,3.41-5.26l3.19-3.24c.65-.67,1.18-1.24,1.59-1.73,.41-.49,.72-.95,.92-1.38,.2-.43,.32-.87,.34-1.31,.03-.44-.02-.92-.13-1.46-.27-1.31-.88-2.18-1.85-2.61-.96-.42-2.43-.43-4.4-.03-.95,.19-2,.47-3.14,.82-1.15,.35-2.22,.7-3.21,1.06l-.15,.03c-.39,.08-.63-.1-.72-.54l-.26-1.3c-.04-.2,0-.36,.11-.49,.11-.13,.26-.23,.45-.32,.87-.44,1.88-.83,3.01-1.19,1.13-.36,2.25-.65,3.34-.88,2.97-.61,5.27-.53,6.9,.23,1.63,.76,2.67,2.27,3.14,4.53Z"/>
        <path class="cls-7" d="M847.75,888.54c-.09,.17-.24,.28-.43,.32l-2.01,.41c-.2,.04-.37,0-.52-.12-.15-.12-.25-.28-.29-.47l-4.7-22.98-4.29,3.01c-.16,.11-.31,.18-.45,.21-.22,.04-.36-.07-.41-.33l-.38-1.86c-.02-.12-.01-.22,.04-.29,.05-.07,.13-.16,.23-.26l4.98-3.76c.26-.21,.5-.33,.72-.38l1.5-.31c.19-.04,.37,0,.53,.1,.16,.11,.26,.26,.3,.45l5.26,25.72c.04,.19,.01,.38-.08,.55Z"/>
      </g>
      <g>
        <path class="cls-7" d="M891.24,858.14c.29,1.44,.18,2.76-.33,3.97-.52,1.21-1.51,2.56-2.99,4.06l-3.03,3.09c-.89,.89-1.6,1.7-2.14,2.43-.54,.73-.93,1.44-1.19,2.13-.25,.69-.39,1.37-.42,2.05-.03,.68,.04,1.42,.21,2.22l.16,.77,12.31-2.52c.19-.04,.38-.02,.54,.06,.17,.08,.27,.22,.31,.41l.33,1.61c.04,.2,0,.37-.12,.52-.12,.15-.28,.25-.47,.29l-14.48,2.96c-.19,.04-.37,0-.55-.1-.17-.1-.28-.25-.32-.45l-.6-2.96c-.39-1.9-.31-3.72,.23-5.48,.54-1.76,1.68-3.51,3.41-5.26l3.19-3.24c.65-.67,1.18-1.24,1.59-1.73,.41-.49,.72-.95,.92-1.38,.2-.43,.32-.87,.34-1.31,.03-.44-.02-.92-.13-1.46-.27-1.31-.88-2.18-1.85-2.61-.96-.42-2.43-.43-4.4-.03-.95,.19-2,.47-3.14,.82-1.15,.35-2.22,.7-3.21,1.06l-.15,.03c-.39,.08-.63-.1-.72-.54l-.26-1.3c-.04-.2,0-.36,.11-.49,.11-.13,.26-.23,.45-.32,.87-.44,1.88-.83,3.01-1.19,1.13-.36,2.25-.65,3.34-.88,2.97-.61,5.27-.53,6.9,.23,1.63,.76,2.67,2.27,3.14,4.53Z"/>
        <path class="cls-7" d="M916.58,868.52c-.12,1.52-.48,2.82-1.07,3.89-.59,1.07-1.39,1.93-2.4,2.58-1.01,.65-2.21,1.12-3.6,1.4-1.39,.28-2.68,.33-3.87,.13-1.2-.2-2.28-.68-3.24-1.43-.97-.75-1.8-1.81-2.51-3.16-.71-1.35-1.27-3.04-1.68-5.06l-1.01-4.93c-.41-2.02-.56-3.79-.44-5.31,.12-1.52,.48-2.82,1.07-3.89,.59-1.07,1.4-1.94,2.42-2.59,1.02-.65,2.23-1.12,3.61-1.41,1.39-.28,2.67-.32,3.86-.12,1.18,.2,2.26,.68,3.22,1.43,.97,.75,1.8,1.81,2.51,3.16,.71,1.35,1.27,3.04,1.68,5.06l1.01,4.93c.41,2.02,.56,3.79,.44,5.31Zm-4.77-9.57c-.31-1.53-.72-2.82-1.2-3.85-.49-1.03-1.05-1.83-1.67-2.42-.63-.58-1.32-.96-2.07-1.14-.76-.17-1.56-.18-2.41,0-.85,.17-1.59,.49-2.22,.95-.63,.46-1.11,1.08-1.46,1.86-.35,.78-.54,1.74-.59,2.88-.05,1.14,.09,2.47,.4,4.01l1.01,4.93c.31,1.53,.71,2.82,1.2,3.85,.49,1.03,1.05,1.84,1.67,2.42,.62,.58,1.32,.96,2.07,1.14,.76,.18,1.56,.18,2.41,0,.85-.17,1.59-.49,2.22-.95,.63-.46,1.11-1.08,1.46-1.86,.35-.78,.54-1.74,.59-2.88,.05-1.14-.09-2.47-.4-4.01l-1.01-4.93Z"/>
        <path class="cls-7" d="M935.44,849.1c.29,1.44,.18,2.76-.33,3.97-.52,1.21-1.51,2.56-2.99,4.06l-3.03,3.09c-.89,.89-1.6,1.7-2.14,2.43-.54,.73-.93,1.44-1.19,2.13-.25,.69-.39,1.37-.42,2.05-.03,.68,.04,1.42,.21,2.22l.16,.77,12.31-2.52c.19-.04,.38-.02,.54,.06,.17,.08,.27,.22,.31,.41l.33,1.61c.04,.2,0,.37-.12,.52-.12,.15-.28,.25-.47,.29l-14.48,2.96c-.19,.04-.37,0-.55-.1-.17-.1-.28-.25-.32-.45l-.6-2.96c-.39-1.9-.31-3.72,.23-5.48,.54-1.76,1.68-3.51,3.41-5.26l3.19-3.24c.65-.67,1.18-1.24,1.59-1.73,.41-.49,.72-.95,.92-1.38,.2-.43,.32-.87,.34-1.31,.03-.44-.02-.92-.13-1.46-.27-1.31-.88-2.18-1.85-2.61-.96-.42-2.43-.43-4.4-.03-.95,.19-2,.47-3.14,.81-1.15,.35-2.22,.7-3.21,1.06l-.15,.03c-.39,.08-.63-.1-.72-.54l-.26-1.3c-.04-.2,0-.36,.11-.49,.11-.13,.26-.23,.45-.32,.87-.44,1.88-.83,3.01-1.19,1.13-.36,2.25-.65,3.34-.88,2.97-.61,5.27-.53,6.9,.23,1.63,.76,2.67,2.27,3.14,4.53Z"/>
        <path class="cls-7" d="M955.99,866.4c-.09,.17-.24,.28-.43,.32l-2.01,.41c-.2,.04-.37,0-.52-.12-.15-.12-.25-.28-.29-.47l-4.7-22.98-4.29,3.01c-.16,.11-.31,.18-.45,.21-.22,.04-.36-.07-.41-.33l-.38-1.86c-.02-.12-.01-.22,.04-.29,.05-.07,.13-.16,.23-.26l4.98-3.76c.26-.21,.5-.33,.72-.38l1.5-.31c.2-.04,.37,0,.53,.1,.16,.11,.26,.26,.3,.45l5.26,25.72c.04,.19,.01,.38-.08,.55Z"/>
      </g>
    </g>
    <rect class="cls-7" x="560.46" y="960.25" width="76.12" height="21.81" transform="translate(-182.53 139.7) rotate(-11.56)"/>
    <rect class="cls-7" x="852.5" y="682.41" width="76.12" height="13.08" transform="translate(-120.03 192.51) rotate(-11.56)"/>
    <rect class="cls-7" x="798.05" y="711.29" width="135.86" height="13.08" transform="translate(-126.32 188.17) rotate(-11.56)"/>
    <rect class="cls-7" x="564.21" y="965.53" width="333.43" height="21.81" transform="translate(-180.9 166.35) rotate(-11.56)"/>
    <path class="cls-7" d="M947.98,932.02c1.21,5.9-2.6,11.66-8.5,12.87-5.9,1.21-11.66-2.6-12.87-8.5-1.21-5.9,2.6-11.66,8.5-12.87s11.66,2.6,12.87,8.5Z"/>
    <path class="cls-7" d="M977.89,925.9c1.21,5.9-2.6,11.66-8.5,12.87-5.9,1.21-11.66-2.6-12.87-8.5s2.6-11.66,8.5-12.87c5.9-1.21,11.66,2.6,12.87,8.5Z"/>
    <path class="cls-9" d="M582.14,761.24l7.6,37.16c.39,1.89-.83,3.74-2.72,4.13l-63.57,13.01c-1.9,.39-3.75-.84-4.14-2.72l-7.6-37.16c-.39-1.9,.84-3.75,2.73-4.14l63.57-13.01c1.9-.39,3.74,.84,4.13,2.73Z"/>
    <polygon class="cls-4" points="548.35 785.45 515.11 792.25 514.75 790.5 546.25 784.06 543.96 772.89 545.71 772.53 548.35 785.45"/>
    <polygon class="cls-4" points="558.92 808.27 557.17 808.63 553.64 791.35 586.91 784.54 587.27 786.29 555.74 792.74 558.92 808.27"/>
    <rect class="cls-4" x="559.27" y="762.35" width="1.78" height="18.9" transform="translate(-143.36 127.98) rotate(-11.57)"/>
    <rect class="cls-4" x="560.15" y="769.64" width="23.65" height="1.78" transform="translate(-142.86 130.3) rotate(-11.56)"/>
    <polygon class="cls-4" points="537.82 804.5 536.07 804.86 534.84 798.87 517.2 802.48 516.84 800.73 536.23 796.76 537.82 804.5"/>
    <path class="cls-13" d="M997.37,953.47l-440.53,90.14c-7.94,1.63-15.73-3.52-17.36-11.46l-54.69-267.27c-1.63-7.94,3.51-15.73,11.46-17.36l440.53-90.14c7.94-1.63,15.73,3.52,17.36,11.46l54.69,267.27c1.63,7.94-3.51,15.73-11.46,17.36Zm-500.58-203.32c-6.5,1.33-10.7,7.7-9.37,14.2l54.69,267.27c1.33,6.5,7.7,10.7,14.2,9.37l440.53-90.14c6.5-1.33,10.7-7.7,9.37-14.2l-54.69-267.27c-1.33-6.5-7.7-10.7-14.2-9.37l-440.53,90.14Z"/>
  </g>
  <g>
    <circle class="cls-7" cx="1532.77" cy="876.65" r="130.75" transform="translate(-170.95 1340.6) rotate(-45)"/>
    <path class="cls-8" d="M1508.47,943.26l-49.31-68.58c-2.33-3.25-1.6-7.77,1.65-10.1,3.25-2.33,7.77-1.59,10.1,1.65l38.09,52.97,95.22-120.8c2.48-3.14,7.03-3.68,10.17-1.2,3.14,2.48,3.68,7.03,1.2,10.17l-107.12,135.9Z"/>
  </g>
  <polygon class="cls-7" points="1577.36 984.02 1631.28 1037.3 1607.66 952.68 1577.36 984.02"/>
  <rect class="cls-7" x="1425.67" y="1107.91" width="223.61" height="11.11"/>
  <rect class="cls-7" x="1425.67" y="1153.9" width="223.61" height="11.11"/>
</svg>